<svg xmlns="http://www.w3.org/2000/svg" xmlns:xlink="http://www.w3.org/1999/xlink" width="199.2" height="199.2" viewBox="0 0 199.2 199.2">
  <defs>
    <linearGradient id="linear-gradient" x1="0.152" y1="0.958" x2="0.83" y2="0.065" gradientUnits="objectBoundingBox">
      <stop offset="0" stop-color="#ed6953"/>
      <stop offset="0.995" stop-color="#ffd454"/>
    </linearGradient>
  </defs>
  <g id="Grupo_9178" data-name="Grupo 9178" transform="translate(-78.2 -151.171)">
    <circle id="Elipse_154" data-name="Elipse 154" cx="99.6" cy="99.6" r="99.6" transform="translate(78.2 151.171)" fill="#8ccbf9"/>
    <g id="Grupo_9177" data-name="Grupo 9177">
      <path id="Trazado_8972" data-name="Trazado 8972" d="M266.108,181.092l-13.805,2.4a21.227,21.227,0,0,1-5.729-.408c-.068-.011-.131-.026-.2-.038a21.166,21.166,0,0,1-3.555-1.107l-44.988-18.505a10.624,10.624,0,0,0-8.841.34l-53.268,26.875a6.374,6.374,0,0,0,2.86,12.063,6.46,6.46,0,0,0,1.563-.2l41.62-10.082.155-.039L268.6,220.041V183.189a2.129,2.129,0,0,0-2.492-2.1Z" fill="#fed2a4"/>
      <path id="Trazado_8973" data-name="Trazado 8973" d="M218.8,193.925a7.145,7.145,0,0,0-5.095-6.846l-6.3-1.89-4.03-1.206-12.445-3.728a7.122,7.122,0,0,0-4.486-.452,7.916,7.916,0,0,0-3.683,2.283c-2.18,2.449-2.481,6.468-1,10.347Q220.882,220.5,226.2,215.12q3.467-3.5-7.4-21.195Zm0,0" fill="#ffbd86"/>
      <path id="Trazado_8974" data-name="Trazado 8974" d="M218.8,193.925l-11.4-3.415-4.03-1.207-12.445-3.727a6.866,6.866,0,0,0-8.169,1.83c-.078.1-.151.2-.22.3a5.542,5.542,0,0,0-.776,4.729,5.871,5.871,0,0,0,2.618,3.447l38.153,25.96a34.311,34.311,0,0,0,25.776,5.326l18.569-3.643a2.128,2.128,0,0,0,1.718-2.089V219.1Zm0,0" fill="#fed2a4"/>
      <path id="Trazado_8975" data-name="Trazado 8975" d="M89.492,320.451l13.805-2.4a21.232,21.232,0,0,1,5.729.409c.068.01.131.026.2.038a21.164,21.164,0,0,1,3.555,1.107l44.988,18.5a10.627,10.627,0,0,0,8.841-.34l53.268-26.875a6.374,6.374,0,0,0-2.86-12.063,6.452,6.452,0,0,0-1.563.2l-41.62,10.083-.155.039L87,281.5v36.852a2.129,2.129,0,0,0,2.492,2.1Zm0,0" fill="#fed2a4"/>
      <path id="Trazado_8976" data-name="Trazado 8976" d="M136.795,307.617a7.146,7.146,0,0,0,5.1,6.847l6.3,1.89,4.03,1.206,12.445,3.728a7.122,7.122,0,0,0,4.486.452,7.916,7.916,0,0,0,3.683-2.283c2.18-2.449,2.481-6.468,1-10.347q-39.115-28.066-44.438-22.687-3.466,3.5,7.4,21.194Zm0,0" fill="#ffbd86"/>
      <path id="Trazado_8977" data-name="Trazado 8977" d="M136.795,307.617l11.4,3.416,4.03,1.207,12.445,3.727a6.866,6.866,0,0,0,8.169-1.83c.078-.1.151-.2.22-.3a5.542,5.542,0,0,0,.776-4.729,5.871,5.871,0,0,0-2.618-3.447L133.063,279.7a34.306,34.306,0,0,0-25.776-5.326l-18.569,3.642A2.129,2.129,0,0,0,87,280.107v2.331Zm0,0" fill="#fed2a4"/>
      <path id="Trazado_8978" data-name="Trazado 8978" d="M186.272,219.45a3.462,3.462,0,0,1,3.472,4.626c-2.322,5.993-4.892,11.912-7.4,17.831-.152.358-.043.508.254.68,4.692,2.708,9.375,5.436,14.069,8.134a3.534,3.534,0,0,1,.753,5.871q-12.761,12.1-25.544,24.184c-1.429,1.349-2.835,1.657-4.3.947a3.372,3.372,0,0,1-1.726-4.27c.889-2.294,1.862-4.56,2.807-6.833q2.286-5.5,4.6-10.995c.158-.375.025-.508-.263-.674-4.749-2.73-9.548-5.409-14.237-8.239a3.519,3.519,0,0,1-.581-5.771q12.767-12.1,25.542-24.185a4.061,4.061,0,0,1,2.553-1.306Z" fill="url(#linear-gradient)"/>
    </g>
  </g>
</svg>
