<svg xmlns="http://www.w3.org/2000/svg" width="182.343" height="182.343" viewBox="0 0 182.343 182.343">
  <g id="Grupo_9196" data-name="Grupo 9196" transform="translate(-349.474 -571.829)">
    <circle id="Elipse_159" data-name="Elipse 159" cx="91.171" cy="91.171" r="91.171" transform="translate(349.474 571.829)" fill="#5ad4d2"/>
    <g id="Grupo_9195" data-name="Grupo 9195">
      <path id="Trazado_9077" data-name="Trazado 9077" d="M468.986,593.769H373.25a10.7,10.7,0,0,0-10.7,10.629V732.162a10.684,10.684,0,0,0,10.7,10.618h95.736a10.591,10.591,0,0,0,10.593-10.618V604.4a10.6,10.6,0,0,0-10.593-10.629Zm-37.833,6.01a5.883,5.883,0,1,1-4.164,1.719,5.877,5.877,0,0,1,4.164-1.719Zm-22.17,0a5.883,5.883,0,1,1-4.164,1.719,5.877,5.877,0,0,1,4.164-1.719Zm-22.171,0a5.878,5.878,0,1,1-5.887,5.879,5.881,5.881,0,0,1,5.887-5.879Zm66.512,11.757a5.879,5.879,0,1,1,5.887-5.878,5.882,5.882,0,0,1-5.887,5.878Zm0,0" fill="#f2f2f2"/>
      <path id="Trazado_9078" data-name="Trazado 9078" d="M517.273,674.048a8.953,8.953,0,0,0-12.382-2.559l-.748.491,9.821,14.918.747-.491a8.907,8.907,0,0,0,2.562-12.359Zm0,0" fill="#ea4e65"/>
      <path id="Trazado_9079" data-name="Trazado 9079" d="M372.436,732.162V604.4a10.7,10.7,0,0,1,10.7-10.629h-9.89a10.7,10.7,0,0,0-10.7,10.629V732.162a10.684,10.684,0,0,0,10.7,10.618h9.89a10.683,10.683,0,0,1-10.7-10.618Zm0,0" fill="#e6e6e6"/>
      <g id="Grupo_9194" data-name="Grupo 9194">
        <path id="Trazado_9080" data-name="Trazado 9080" d="M426.578,625.856H415.551a26.469,26.469,0,0,0-26.533,26.407v9.547h64.088v-9.547a26.467,26.467,0,0,0-26.528-26.407Zm0,0" fill="#fcca3d"/>
        <path id="Trazado_9081" data-name="Trazado 9081" d="M453.209,661.81h-64.89a4.544,4.544,0,0,0-3.24,1.444,5.039,5.039,0,0,0-1.415,3.488,4.946,4.946,0,0,0,4.956,4.932h64.887a4.942,4.942,0,0,0,4.953-4.932,5.017,5.017,0,0,0-5.251-4.932Zm0,0" fill="#edb740"/>
        <path id="Trazado_9082" data-name="Trazado 9082" d="M426.973,653.311H415.151a2.717,2.717,0,0,0-2.72,2.706v5.793h17.262v-5.793a2.713,2.713,0,0,0-2.72-2.706Zm0,0" fill="#fff655"/>
        <path id="Trazado_9083" data-name="Trazado 9083" d="M425.442,625.856h-9.891a26.469,26.469,0,0,0-26.533,26.407v9.547h9.89v-9.547a26.47,26.47,0,0,1,26.534-26.407Zm0,0" fill="#e0b036"/>
        <path id="Trazado_9084" data-name="Trazado 9084" d="M393.554,666.742a5.039,5.039,0,0,1,1.415-3.488,4.544,4.544,0,0,1,3.24-1.444h-9.89a4.544,4.544,0,0,0-3.24,1.444,5.039,5.039,0,0,0-1.415,3.488,4.946,4.946,0,0,0,4.956,4.932h9.89a4.947,4.947,0,0,1-4.956-4.932Zm0,0" fill="#d39f37"/>
        <path id="Trazado_9085" data-name="Trazado 9085" d="M424.9,621.871a5.439,5.439,0,0,0-9.273,3.823v27.617H426.5V625.694a5.391,5.391,0,0,0-1.592-3.823Zm0,0" fill="#fadf4a"/>
      </g>
      <path id="Trazado_9086" data-name="Trazado 9086" d="M386.814,601.706a1.977,1.977,0,0,1-1.978-1.978V585.2a1.978,1.978,0,0,1,3.956,0v14.53a1.978,1.978,0,0,1-1.978,1.978Zm0,0" fill="#d4e1f4"/>
      <path id="Trazado_9087" data-name="Trazado 9087" d="M386.814,601.706a1.977,1.977,0,0,1-1.978-1.978V585.2a1.978,1.978,0,0,1,3.956,0v14.53a1.978,1.978,0,0,1-1.978,1.978Zm0,0" fill="#d4e1f4"/>
      <path id="Trazado_9088" data-name="Trazado 9088" d="M408.983,601.706a1.978,1.978,0,0,1-1.978-1.978V585.2a1.978,1.978,0,0,1,3.956,0v14.53a1.978,1.978,0,0,1-1.978,1.978Zm0,0" fill="#d4e1f4"/>
      <path id="Trazado_9089" data-name="Trazado 9089" d="M431.153,601.706a1.978,1.978,0,0,1-1.978-1.978V585.2a1.978,1.978,0,0,1,3.956,0v14.53a1.978,1.978,0,0,1-1.978,1.978Zm0,0" fill="#d4e1f4"/>
      <path id="Trazado_9090" data-name="Trazado 9090" d="M453.322,601.706a1.978,1.978,0,0,1-1.978-1.978V585.2a1.978,1.978,0,0,1,3.956,0v14.53a1.978,1.978,0,0,1-1.978,1.978Zm0,0" fill="#d4e1f4"/>
      <path id="Trazado_9091" data-name="Trazado 9091" d="M466.277,687.07H413.09a1.978,1.978,0,1,1,0-3.956h53.187a1.978,1.978,0,0,1,0,3.956Zm0,0" fill="#7ea582"/>
      <path id="Trazado_9092" data-name="Trazado 9092" d="M386.849,694.29a1.977,1.977,0,0,1-1.4-.579l-3.39-3.381a1.979,1.979,0,1,1,2.8-2.8l2.022,2.019,4.834-4.614a1.978,1.978,0,1,1,2.73,2.863l-6.229,5.945a1.978,1.978,0,0,1-1.365.547Zm0,0" fill="#e75163"/>
      <path id="Trazado_9093" data-name="Trazado 9093" d="M446.809,711.845H413.09a1.978,1.978,0,1,1,0-3.956h33.719a1.978,1.978,0,0,1,0,3.956Zm0,0" fill="#7ea582"/>
      <path id="Trazado_9094" data-name="Trazado 9094" d="M386.849,719.065a1.977,1.977,0,0,1-1.4-.579l-3.39-3.383a1.978,1.978,0,1,1,2.8-2.8l2.022,2.017,4.834-4.613a1.978,1.978,0,1,1,2.73,2.862l-6.228,5.946a1.977,1.977,0,0,1-1.366.548Zm0,0" fill="#e75163"/>
      <path id="Trazado_9095" data-name="Trazado 9095" d="M441.457,694.149H413.09a1.978,1.978,0,1,1,0-3.956h28.367a1.978,1.978,0,0,1,0,3.956Zm0,0" fill="#7ea582"/>
      <path id="Trazado_9096" data-name="Trazado 9096" d="M441.457,718.922H413.09a1.978,1.978,0,1,1,0-3.956h28.367a1.978,1.978,0,0,1,0,3.956Zm0,0" fill="#7ea582"/>
      <path id="Trazado_9097" data-name="Trazado 9097" d="M504.143,671.98l-57.152,37.464L451.9,716.9l57.155-37.46Zm0,0" fill="#fbb03b"/>
      <path id="Trazado_9098" data-name="Trazado 9098" d="M509.055,679.441,451.9,716.9l4.909,7.461L513.964,686.9Zm0,0" fill="#f7931e"/>
      <path id="Trazado_9099" data-name="Trazado 9099" d="M446.991,709.444l-.225.423-7.938,14.967,17.981-.472Zm0,0" fill="#c79a83"/>
    </g>
  </g>
</svg>
