<svg xmlns="http://www.w3.org/2000/svg" width="182.343" height="182.343" viewBox="0 0 182.343 182.343">
  <g id="Grupo_9193" data-name="Grupo 9193" transform="translate(-1189.127 -571.829)">
    <circle id="Elipse_158" data-name="Elipse 158" cx="91.171" cy="91.171" r="91.171" transform="translate(1189.127 571.829)" fill="#5ad4d2"/>
    <g id="Grupo_9192" data-name="Grupo 9192">
      <g id="Grupo_9189" data-name="Grupo 9189">
        <rect id="Rectángulo_6092" data-name="Rectángulo 6092" width="44.893" height="32.423" rx="12" transform="translate(1215.992 702.863)" fill="#614c5d"/>
        <rect id="Rectángulo_6093" data-name="Rectángulo 6093" width="44.893" height="32.423" rx="12" transform="translate(1270.141 702.863)" fill="#614c5d"/>
        <path id="Rectángulo_6094" data-name="Rectángulo 6094" d="M0,0H114.65A2.947,2.947,0,0,1,117.6,2.947V7.375a2.947,2.947,0,0,1-2.947,2.947H2.947A2.947,2.947,0,0,1,0,7.375V0A0,0,0,0,1,0,0Z" transform="translate(1205.527 701.71)" fill="#614c5d"/>
        <rect id="Rectángulo_6095" data-name="Rectángulo 6095" width="106.414" height="5.955" transform="translate(1205.527 695.755)" fill="#b2aab1"/>
      </g>
      <g id="Grupo_9190" data-name="Grupo 9190">
        <path id="Trazado_9059" data-name="Trazado 9059" d="M1275.815,606.809h-18.06a43.354,43.354,0,0,0-43.459,43.253V665.7h104.969V650.062a43.35,43.35,0,0,0-43.45-43.253Zm0,0" fill="#fcca3d"/>
        <path id="Trazado_9060" data-name="Trazado 9060" d="M1319.434,665.7H1213.152a7.437,7.437,0,0,0-5.307,2.365,8.251,8.251,0,0,0-2.318,5.712,8.1,8.1,0,0,0,8.116,8.08h106.278a8.1,8.1,0,0,0,8.113-8.08c0-4.461-3.634-8.077-8.6-8.077Zm0,0" fill="#edb740"/>
        <path id="Trazado_9061" data-name="Trazado 9061" d="M1276.462,651.777H1257.1a4.449,4.449,0,0,0-4.455,4.432V665.7h28.272v-9.489a4.442,4.442,0,0,0-4.455-4.432Zm0,0" fill="#fff655"/>
        <path id="Trazado_9062" data-name="Trazado 9062" d="M1273.954,606.809h-16.2a43.354,43.354,0,0,0-43.459,43.253V665.7h16.2V650.062a43.354,43.354,0,0,1,43.459-43.253Zm0,0" fill="#e0b036"/>
        <path id="Trazado_9063" data-name="Trazado 9063" d="M1221.726,673.775a8.247,8.247,0,0,1,2.318-5.712,7.437,7.437,0,0,1,5.307-2.365h-16.2a7.437,7.437,0,0,0-5.307,2.365,8.251,8.251,0,0,0-2.318,5.712,8.1,8.1,0,0,0,8.116,8.08h16.2a8.1,8.1,0,0,1-8.116-8.08Zm0,0" fill="#d39f37"/>
        <path id="Trazado_9064" data-name="Trazado 9064" d="M1273.073,600.281a8.91,8.91,0,0,0-15.189,6.263v45.233h17.8V606.544a8.828,8.828,0,0,0-2.607-6.263Zm0,0" fill="#fadf4a"/>
      </g>
      <g id="Grupo_9191" data-name="Grupo 9191">
        <path id="Trazado_9065" data-name="Trazado 9065" d="M1318.546,717.194h31.792l-.43-5.162H1298.3l-2.348,28.173a2.581,2.581,0,0,0,2.572,2.795h10.752l1.559-18.707a7.743,7.743,0,0,1,7.716-7.1Z" fill="#dcd7d9"/>
        <path id="Trazado_9066" data-name="Trazado 9066" d="M1347.743,595.914a7.742,7.742,0,0,0-8.158,7.731v-7.3a8.037,8.037,0,0,0-7.325-8.169,7.743,7.743,0,0,0-8.158,7.731V591.18a8.037,8.037,0,0,0-7.326-8.169,7.742,7.742,0,0,0-8.158,7.731V595.9a7.744,7.744,0,0,0-8.158-7.731,8.037,8.037,0,0,0-7.326,8.169V649.26L1281.9,630.94a8.036,8.036,0,0,0-10.515-3.134,7.743,7.743,0,0,0-2.913,10.856l20.856,34.008a25.813,25.813,0,0,1,3.807,13.491v20.71a5.162,5.162,0,0,0,5.161,5.162h51.613a5.162,5.162,0,0,0,5.161-5.162V604.084a8.038,8.038,0,0,0-7.326-8.17Z" fill="#ea4e65"/>
        <path id="Trazado_9067" data-name="Trazado 9067" d="M1349.908,712.032H1298.3l-2.348,28.173a2.581,2.581,0,0,0,2.572,2.795h51.165a2.58,2.58,0,0,0,2.571-2.795l-2.347-28.173Z" fill="#ede8ea"/>
        <path id="Trazado_9068" data-name="Trazado 9068" d="M1337.005,693.968H1311.2a5.161,5.161,0,0,1-5.161-5.161V663a5.161,5.161,0,0,1,5.161-5.161h25.807a5.161,5.161,0,0,1,5.161,5.161v25.807a5.161,5.161,0,0,1-5.161,5.161Z" fill="#ffd059"/>
        <path id="Trazado_9069" data-name="Trazado 9069" d="M1324.1,688.163a3.227,3.227,0,0,1-2.936-4.557l2.024-4.477h-3.171a3.224,3.224,0,0,1-2.938-4.555l4.085-9.032a3.225,3.225,0,1,1,5.877,2.658l-2.024,4.478h3.171a3.224,3.224,0,0,1,2.938,4.555l-4.085,9.032a3.225,3.225,0,0,1-2.941,1.9Z" fill="#ea4e65"/>
        <path id="Trazado_9070" data-name="Trazado 9070" d="M1297.005,652.678h0a3.871,3.871,0,0,1-3.871-3.871V597.194a3.871,3.871,0,0,1,3.871-3.871h0a3.871,3.871,0,0,1,3.871,3.871v51.612a3.871,3.871,0,0,1-3.871,3.872Z" fill="#e7344e"/>
        <path id="Trazado_9071" data-name="Trazado 9071" d="M1312.488,642.355h0a3.871,3.871,0,0,1-3.87-3.871V592.032a3.871,3.871,0,0,1,3.87-3.871h0a3.872,3.872,0,0,1,3.871,3.871v46.452a3.871,3.871,0,0,1-3.871,3.871Z" fill="#e7344e"/>
        <path id="Trazado_9072" data-name="Trazado 9072" d="M1327.972,639.775h0a3.872,3.872,0,0,1-3.871-3.871v-38.71a3.871,3.871,0,0,1,3.871-3.871h0a3.871,3.871,0,0,1,3.871,3.871V635.9a3.872,3.872,0,0,1-3.871,3.872Z" fill="#e7344e"/>
        <path id="Trazado_9073" data-name="Trazado 9073" d="M1343.456,644.936h0a3.871,3.871,0,0,1-3.871-3.871V604.936a3.871,3.871,0,0,1,3.871-3.871h0a3.871,3.871,0,0,1,3.871,3.871v36.129a3.871,3.871,0,0,1-3.871,3.871Z" fill="#e7344e"/>
        <path id="Trazado_9074" data-name="Trazado 9074" d="M1300.876,686.226V683.58a25.8,25.8,0,0,0-3.808-13.491l-20.855-34.008a7.735,7.735,0,0,1,.57-8.887,7.392,7.392,0,0,0-5.4.612,7.741,7.741,0,0,0-2.913,10.855l20.856,34.008a25.813,25.813,0,0,1,3.807,13.492v20.71a5.161,5.161,0,0,0,5.161,5.161h51.613a5.161,5.161,0,0,0,5.161-5.161h-33.548a20.645,20.645,0,0,1-20.645-20.645Z" fill="#e7344e"/>
        <path id="Trazado_9075" data-name="Trazado 9075" d="M1351.2,727.516l-1.29-15.484H1298.3L1297,727.516Z" fill="#ed6b80"/>
        <path id="Trazado_9076" data-name="Trazado 9076" d="M1297.005,727.516h13.557l.268-3.223a7.742,7.742,0,0,1,7.715-7.1h31.793l-.43-5.162H1298.3l-1.29,15.484Z" fill="#ea4e65"/>
      </g>
    </g>
  </g>
</svg>
