<?xml version="1.0" encoding="utf-8"?>
<!-- Generator: Adobe Illustrator 25.0.1, SVG Export Plug-In . SVG Version: 6.00 Build 0)  -->
<svg version="1.1" id="Capa_1" xmlns="http://www.w3.org/2000/svg" xmlns:xlink="http://www.w3.org/1999/xlink" x="0px" y="0px"
	 viewBox="0 0 182.3 182.3" style="enable-background:new 0 0 182.3 182.3;" xml:space="preserve">
<style type="text/css">
	.st0{fill:#5AD4D2;}
	.st1{fill:#DD714B;}
	.st2{fill:#CF6A46;}
	.st3{fill:#00A6DA;}
	.st4{fill:#0096D3;}
	.st5{fill:#EDE8EA;}
	.st6{fill:#614C5D;}
	.st7{fill:#FFD059;}
	.st8{fill:#DCD7D9;}
	.st9{fill:#EA4E65;}
	.st10{fill:#B0B5CA;}
	.st11{fill:#E7344E;}
	.st12{fill:#B2AAB1;}
</style>
<g id="Grupo_9198" transform="translate(-769.3 -571.829)">
	<circle id="Elipse_160" class="st0" cx="860.5" cy="663" r="91.2"/>
	<g id="Grupo_9197">
		<path id="Trazado_9100" class="st1" d="M843.3,743h-5.2c-1.4,0-2.6-1.2-2.6-2.6c0,0,0,0,0,0v-38.7h10.3v38.7
			C845.9,741.8,844.7,743,843.3,743C843.3,743,843.3,743,843.3,743L843.3,743z"/>
		<path id="Trazado_9101" class="st2" d="M843.3,712h2.6v-10.3h-10.3v38.7c0,1.4,1.2,2.6,2.6,2.6c0,0,0,0,0,0h2.6v-28.4
			C840.7,713.2,841.9,712,843.3,712z"/>
		<path id="Trazado_9102" class="st3" d="M869.1,743h-5.2c-1.4,0-2.6-1.2-2.6-2.6c0,0,0,0,0,0v-38.7h10.3v38.7
			C871.7,741.8,870.5,743,869.1,743z"/>
		<path id="Trazado_9103" class="st4" d="M869.1,712h2.6v-10.3h-10.3v38.7c0,1.4,1.2,2.6,2.6,2.6c0,0,0,0,0,0h2.6v-28.4
			C866.5,713.2,867.7,712,869.1,712L869.1,712z"/>
		<path id="Trazado_9104" class="st5" d="M892.3,706.9h-77.4c-5.7,0-10.3-4.6-10.3-10.3c0,0,0,0,0,0V593.3c0-5.7,4.6-10.3,10.3-10.3
			h77.4c5.7,0,10.3,4.6,10.3,10.3c0,0,0,0,0,0v103.2C902.6,702.2,898,706.9,892.3,706.9C892.3,706.9,892.3,706.9,892.3,706.9
			L892.3,706.9z"/>
		<path id="Trazado_9105" class="st6" d="M874.5,645.9L874.5,645.9z M875,650.1h-42.8c-2.5,0-4.5-2-4.5-4.5c0-0.8,0.2-1.6,0.6-2.3
			l21.4-37.1c1.2-2.2,4-2.9,6.2-1.7c0.7,0.4,1.3,1,1.7,1.7l21.4,37.1c1.2,2.2,0.5,4.9-1.7,6.2C876.6,649.9,875.8,650.1,875,650.1
			L875,650.1z"/>
		<path id="Trazado_9106" class="st7" d="M833.3,644.9h40.6l-20.3-35.1L833.3,644.9L833.3,644.9z"/>
		<path id="Trazado_9107" class="st6" d="M853.6,642.4c-0.3,0-0.5,0-0.8-0.1c-1.4-0.4-2.1-1.9-1.7-3.2c0,0,0,0,0,0l1.8-5.7h-2.1
			c-1.4,0-2.6-1.2-2.6-2.6c0-0.3,0-0.5,0.1-0.8l2.8-9c0.4-1.4,1.9-2.1,3.2-1.7s2.1,1.9,1.7,3.2l0,0l-1.8,5.7h2.1
			c1.4,0,2.6,1.2,2.6,2.6c0,0.3,0,0.5-0.1,0.8l-2.8,9C855.7,641.6,854.7,642.4,853.6,642.4L853.6,642.4z"/>
		<path id="Trazado_9108" class="st8" d="M876.8,663h-46.5c-1.4,0-2.6-1.2-2.5-2.6c0-1.4,1.1-2.5,2.5-2.5h46.5
			c1.4,0,2.6,1.2,2.5,2.6C879.3,661.9,878.2,663,876.8,663z"/>
		<path id="Trazado_9109" class="st8" d="M876.8,673.3h-46.5c-1.4,0-2.6-1.2-2.6-2.6c0-1.4,1.2-2.6,2.6-2.6h46.5
			c1.4,0,2.6,1.2,2.6,2.6C879.4,672.2,878.3,673.3,876.8,673.3z"/>
		<path id="Trazado_9110" class="st8" d="M876.8,683.6h-46.5c-1.4,0-2.6-1.2-2.6-2.6c0-1.4,1.2-2.6,2.6-2.6h46.5
			c1.4,0,2.6,1.2,2.6,2.6C879.4,682.5,878.3,683.6,876.8,683.6z"/>
		<path id="Trazado_9111" class="st8" d="M887.2,657.8v33.5h-67.1v-92.9h67.1V632c0,1.4,1.2,2.6,2.6,2.6c0,0,0,0,0,0l0,0
			c1.4,0,2.6-1.2,2.6-2.6c0,0,0,0,0,0v-36.1c0-1.4-1.2-2.6-2.6-2.6c0,0,0,0,0,0h-72.3c-1.4,0-2.6,1.2-2.6,2.6c0,0,0,0,0,0V694
			c0,1.4,1.2,2.6,2.6,2.6c0,0,0,0,0,0h72.3c1.4,0,2.6-1.2,2.6-2.6c0,0,0,0,0,0v-36.1c0-1.4-1.2-2.6-2.6-2.6l0,0
			C888.3,655.3,887.2,656.4,887.2,657.8z"/>
		<path id="Trazado_9112" class="st9" d="M913.8,695.8L913.8,695.8c-3.4,13-16.6,20.8-29.6,17.4c-8.5-2.2-15.2-8.9-17.4-17.4v-0.1
			H913.8z"/>
		<path id="Trazado_9113" class="st10" d="M908.5,661.1v14.3c-1.5-1.7-3.3-3.2-5.2-4.4v-9.9c0-7.2-5.8-13-13-13c-7.2,0-13,5.8-13,13
			v9.9c-1.9,1.2-3.7,2.7-5.2,4.4v-14.3c0-10,8.2-18.2,18.2-18.1C900.3,643,908.5,651.1,908.5,661.1L908.5,661.1z"/>
		<path id="Trazado_9114" class="st9" d="M911.7,678.5c1.1,2,1.9,4.2,2.4,6.5h-47.4c0.8-4.1,2.8-7.9,5.6-11.1l0,0
			c8.9-10,24.2-11,34.2-2.1C908.5,673.7,910.3,676,911.7,678.5L911.7,678.5z"/>
		<path id="Trazado_9115" class="st11" d="M871.3,695.8L871.3,695.8l-4.5-0.1v0.1c2.8,10.7,12.4,18.2,23.5,18.2c0.8,0,1.5,0,2.2-0.1
			C882.4,712.9,873.8,705.7,871.3,695.8L871.3,695.8z"/>
		<path id="Trazado_9116" class="st11" d="M876.6,673.9L876.6,673.9c4.1-4.6,9.8-7.5,15.9-8.1c-0.7-0.1-1.5-0.1-2.2-0.1
			c-6.9,0-13.6,3-18.2,8.2l0,0c-2.8,3.1-4.7,7-5.6,11.1h4.5C871.9,680.9,873.8,677,876.6,673.9z"/>
		<path id="Trazado_9117" class="st7" d="M937,692.7v4.9c0,1.4-1.1,2.5-2.5,2.5h-88.4c-1.4,0-2.5-1.1-2.5-2.5v-14.3
			c0-1.4,1.1-2.5,2.5-2.5h88.4c1.4,0,2.5,1.1,2.5,2.5V692.7z"/>
		<path id="Trazado_9118" class="st6" d="M917.6,700l18.6-18.6c-0.5-0.4-1.1-0.7-1.7-0.7h-13L902.2,700H917.6z"/>
		<path id="Trazado_9119" class="st6" d="M886.3,700l19.3-19.3h-15.5L870.8,700H886.3z"/>
		<path id="Trazado_9120" class="st6" d="M858.8,680.7l-15.2,15.2v1.7c0,1.4,1.1,2.5,2.5,2.5h8.9l19.3-19.3H858.8z"/>
		<path id="Trazado_9121" class="st12" d="M889.7,639.8c2.9,0,5.2,2.3,5.2,5.2s-2.3,5.2-5.2,5.2c-2.8,0-5.2-2.3-5.2-5.2
			C884.6,642.1,886.9,639.8,889.7,639.8z"/>
	</g>
</g>
</svg>
