<svg xmlns="http://www.w3.org/2000/svg" xmlns:xlink="http://www.w3.org/1999/xlink" width="199.2" height="200" viewBox="0 0 199.2 200">
  <defs>
    <linearGradient id="linear-gradient" x1="0.5" y1="1" x2="0.5" gradientUnits="objectBoundingBox">
      <stop offset="0.005" stop-color="#ffd454"/>
      <stop offset="1" stop-color="#ed6953"/>
    </linearGradient>
  </defs>
  <g id="Grupo_9170" data-name="Grupo 9170" transform="translate(-589.276 -150.771)">
    <circle id="Elipse_150" data-name="Elipse 150" cx="99.6" cy="99.6" r="99.6" transform="translate(589.276 151.171)" fill="#8ccbf9"/>
    <g id="Grupo_9169" data-name="Grupo 9169">
      <path id="Trazado_8954" data-name="Trazado 8954" d="M643.785,332.7c-9.18-10.432-18.359-21.28-24.2-34.216a77.57,77.57,0,0,1-4.59-44.647,96.3,96.3,0,0,1,19.194-41.309A39.8,39.8,0,0,0,644.2,241.735c-4.172-20.029,2.5-41.726,15.856-57.583s31.712-26.287,50.906-33.381c-9.6,10.015-10.848,25.871-7.093,39.223s11.683,25.036,18.777,37.136,13.77,24.619,14.187,38.388c3.755-7.093,7.928-14.186,10.431-22.114s3.756-16.274,1.669-24.2a62.066,62.066,0,0,1,13.77,30.043c2.086,11.684,1.669,23.784.417,35.468-1.669,12.935-5.007,26.287-12.1,37.136-8.346,12.935-21.7,22.115-36.3,27.122-25.87,4.59-51.324.835-70.935-16.273Z" fill="url(#linear-gradient)"/>
      <path id="Trazado_8955" data-name="Trazado 8955" d="M675.5,348.136c34.216,13.353,68.014-27.121,49.237-58.416,0-.418-.417-.418-.417-.835,1.669,17.108-2.5,29.626-10.432,36.719,4.173-10.014,1.252-21.7-3.755-31.711-5.007-9.6-12.1-18.36-17.525-27.54-5.425-9.6-9.6-20.446-7.094-31.294a55.022,55.022,0,0,0-20.028,30.877,55.858,55.858,0,0,0,4.172,36.719c-6.259-4.59-10.848-12.1-11.266-20.029-6.676,7.928-10.848,18.36-10.431,28.792,0,16.273,12.935,30.877,27.539,36.718Z" fill="#ffd454"/>
    </g>
  </g>
</svg>
