<svg xmlns="http://www.w3.org/2000/svg" width="208.129" height="208.128" viewBox="0 0 208.129 208.128">
  <g id="Grupo_9180" data-name="Grupo 9180" transform="translate(-76.782 -437.262)">
    <circle id="Elipse_155" data-name="Elipse 155" cx="104.064" cy="104.064" r="104.064" transform="translate(76.782 437.262)" fill="#ff3345"/>
    <path id="Trazado_8979" data-name="Trazado 8979" d="M180.847,567.918a104.1,104.1,0,0,1-96.61-65.328,104.065,104.065,0,1,0,193.219,0A104.094,104.094,0,0,1,180.847,567.918Z" fill="#dc1163" opacity="0.5"/>
    <g id="Grupo_9179" data-name="Grupo 9179">
      <path id="Trazado_8980" data-name="Trazado 8980" d="M239.627,543.424c0,20.211-10.6,27.768-26.654,30.594a8.925,8.925,0,0,0-7.432,8.748v5.381a4.022,4.022,0,0,1-4.023,4.024h-.005a4.027,4.027,0,0,1-4.028-4.024v-1.1a2.862,2.862,0,0,0-5.723,0v1.1a4.027,4.027,0,0,1-8.054,0v-1.1a2.861,2.861,0,1,0-5.723,0v1.1a4.027,4.027,0,0,1-8.054,0v-1.1a2.861,2.861,0,1,0-5.722,0v1.1a4.029,4.029,0,0,1-8.057,0v-5.381a8.925,8.925,0,0,0-7.432-8.748c-7.187-1.269-13.279-3.481-17.816-7.355-5.605-4.772-8.838-12.076-8.838-23.239,0-31.832,26.318-57.642,58.781-57.642s58.78,25.81,58.78,57.642Zm0,0" fill="#fff"/>
      <path id="Trazado_8981" data-name="Trazado 8981" d="M239.627,543.424c0,20.211-10.6,27.768-26.654,30.594a8.925,8.925,0,0,0-7.432,8.748v5.381a4.022,4.022,0,0,1-4.023,4.024h-.005a4.027,4.027,0,0,1-4.028-4.024v-1.1a2.862,2.862,0,0,0-5.723,0v1.1a4.027,4.027,0,0,1-8.054,0v-1.1a2.861,2.861,0,1,0-5.723,0v1.1a4.027,4.027,0,0,1-8.054,0v-1.1a2.861,2.861,0,1,0-5.722,0v1.1a4.029,4.029,0,0,1-8.057,0v-5.381a8.925,8.925,0,0,0-7.432-8.748c-7.187-1.269-13.279-3.481-17.816-7.355-5.605-4.772-8.838-12.076-8.838-23.239,0-31.832,26.318-57.642,58.781-57.642s58.78,25.81,58.78,57.642Zm0,0" fill="#e3ebf8"/>
      <path id="Trazado_8982" data-name="Trazado 8982" d="M148.72,574.018c-8.523-11.147-10.556-22.021-9.581-33.033,2.3-25.943,18.024-48.053,42.209-55.2-.166,0-.333-.006-.5-.006-32.463,0-58.781,25.81-58.781,57.642,0,11.163,3.233,18.467,8.838,23.239,4.537,3.874,10.629,6.086,17.816,7.355" fill="#fff"/>
      <path id="Trazado_8983" data-name="Trazado 8983" d="M239.627,543.424c0,20.211-10.6,27.768-26.654,30.594a8.925,8.925,0,0,0-7.432,8.748v5.381a4.022,4.022,0,0,1-4.023,4.024h-.005a4.027,4.027,0,0,1-4.028-4.024v-1.1a2.862,2.862,0,0,0-5.723,0v1.1a4.027,4.027,0,0,1-8.054,0v-1.1a2.859,2.859,0,0,0-2.861-2.861v-98.4c32.462,0,58.78,25.81,58.78,57.642Zm0,0" fill="#c7d9ff"/>
      <path id="Trazado_8984" data-name="Trazado 8984" d="M172.342,546.814c0,9.21-7.465,10.339-16.674,10.339s-16.677-1.129-16.677-10.339a16.675,16.675,0,1,1,33.351,0Zm0,0" fill="#002e35"/>
      <path id="Trazado_8985" data-name="Trazado 8985" d="M222.7,546.814c0,9.21-7.467,10.339-16.677,10.339s-16.676-1.129-16.676-10.339a16.676,16.676,0,0,1,33.353,0Zm0,0" fill="#002e35"/>
      <path id="Trazado_8986" data-name="Trazado 8986" d="M178.293,559.211l-4.448,7.7a2.949,2.949,0,0,0,2.554,4.423h8.9a2.949,2.949,0,0,0,2.555-4.423l-4.448-7.7a2.949,2.949,0,0,0-5.108,0Zm0,0" fill="#002e35"/>
      <path id="Trazado_8987" data-name="Trazado 8987" d="M234.666,630.407q-4.35,2.64-8.979,4.85a102.754,102.754,0,0,1-13.545,5.341,13.474,13.474,0,0,0-7.2-7.317l-24.109-10.122h0l-8.065-3.386-4.04-1.7-4.025-1.687-12.748-5.354a13.589,13.589,0,0,0-11.6.593,9.138,9.138,0,0,1-8.923-15.942,9.137,9.137,0,0,1,17.626-4.8,13.589,13.589,0,0,0,7.7,8.7l24.109,10.122,4.029,1.691,4.036,1.7,8.065,3.385h0l12.753,5.354a13.6,13.6,0,0,0,11.593-.594,9.133,9.133,0,0,1,13.373,7.565,8.7,8.7,0,0,1-.05,1.6Zm0,0" fill="#fff"/>
      <path id="Trazado_8988" data-name="Trazado 8988" d="M225.687,635.257a102.754,102.754,0,0,1-13.545,5.341,13.474,13.474,0,0,0-7.2-7.317l-24.109-10.122h0l-8.065-3.386-4.04-1.7-4.025-1.687-12.748-5.354a13.589,13.589,0,0,0-11.6.593,9.138,9.138,0,0,1-8.923-15.942l41.354,17.362,4.024,1.686,4.041,1.7,8.065,3.382Zm0,0" fill="#e3ebf8"/>
      <path id="Trazado_8989" data-name="Trazado 8989" d="M234.8,603.87c0,.18-.007.359-.02.537a9.146,9.146,0,0,1-.886,3.338v0c-.089.187-.188.375-.292.558v0c-.1.178-.211.357-.33.532-.061.089-.118.179-.179.264-.122.171-.247.338-.387.5v.005a8.4,8.4,0,0,1-1.118,1.138c-.162.138-.331.272-.5.4-.089.065-.18.125-.268.187-.18.122-.363.24-.553.35s-.386.216-.586.312a9.1,9.1,0,0,1-8.308-.141,14.237,14.237,0,0,0-2.79-1.127,14.65,14.65,0,0,0-1.658-.365c-.411-.061-.821-.11-1.232-.134a.149.149,0,0,0-.047,0,13.222,13.222,0,0,0-5.256.736c-.208.069-.407.151-.61.231l-.005.005L197,616.48h0l-4.028,1.667h0l-4.045,1.671h0l-8.081,3.341h0l-24.166,9.987a13.516,13.516,0,0,0-7.3,7.4,102.615,102.615,0,0,1-13.683-5.443h-.005q-4.468-2.154-8.691-4.716a9.137,9.137,0,0,1,13.342-9.369,13.588,13.588,0,0,0,11.588.658l12.781-5.28,8.086-3.341,4.044-1.672,4.036-1.67,24.171-9.988a13.589,13.589,0,0,0,7.748-8.65,9.136,9.136,0,0,1,16.309-2.43,9.368,9.368,0,0,1,.68,1.186,9.092,9.092,0,0,1,.609,6.138,9.126,9.126,0,0,1,1.528,1.15c.1.091.19.18.281.273a10.138,10.138,0,0,1,.764.881,9.047,9.047,0,0,1,.846,1.347,9.86,9.86,0,0,1,.483,1.131c.09.247.166.5.232.748s.117.5.163.758a8.981,8.981,0,0,1,.125,1.618Zm0,0" fill="#fff"/>
      <path id="Trazado_8990" data-name="Trazado 8990" d="M234.781,604.407a9.307,9.307,0,0,1-.886,3.338v0c-.094.192-.191.375-.292.558v0c-.106.183-.216.357-.33.532-.061.089-.118.179-.179.264-.122.171-.252.338-.387.5v.005a9.169,9.169,0,0,1-1.118,1.138c-.162.138-.331.272-.5.4-.089.065-.18.125-.268.187-.18.122-.363.24-.553.35s-.386.216-.586.312a9.1,9.1,0,0,1-8.308-.141,14.237,14.237,0,0,0-2.79-1.127,13.278,13.278,0,0,0-1.658-.365q-.617-.1-1.232-.134a.149.149,0,0,0-.047,0,13.222,13.222,0,0,0-5.256.736c-.208.069-.407.151-.61.231l-.005.005-12.781,5.28-4.031,1.667-4.045,1.671h0l-8.081,3.341h0l-24.166,9.987a13.516,13.516,0,0,0-7.3,7.4,102.615,102.615,0,0,1-13.683-5.443l37.08-15.325h.005l8.076-3.337h.005l4.049-1.676,4.031-1.665,41.452-17.131a9.126,9.126,0,0,1,1.528,1.15c.094.091.187.18.281.273a10.138,10.138,0,0,1,.764.881,8.981,8.981,0,0,1,1.329,2.478c.09.247.166.5.232.748s.117.5.163.758a9.178,9.178,0,0,1,.105,2.155Zm0,0" fill="#e3ebf8"/>
    </g>
  </g>
</svg>
