<svg xmlns="http://www.w3.org/2000/svg" width="182.343" height="182.343" viewBox="0 0 182.343 182.343">
  <g id="Grupo_9188" data-name="Grupo 9188" transform="translate(-559.387 -571.829)">
    <circle id="Elipse_157" data-name="Elipse 157" cx="91.171" cy="91.171" r="91.171" transform="translate(559.387 571.829)" fill="#5ad4d2"/>
    <g id="Grupo_9187" data-name="Grupo 9187">
      <path id="Trazado_9009" data-name="Trazado 9009" d="M665.6,740.657h-3.687a1.845,1.845,0,0,1-1.844-1.844V711.158h7.375v27.655a1.845,1.845,0,0,1-1.844,1.844Z" fill="#dd714b"/>
      <path id="Trazado_9010" data-name="Trazado 9010" d="M665.6,718.533h1.844v-7.375h-7.375v27.655a1.845,1.845,0,0,0,1.844,1.844h1.843v-20.28a1.844,1.844,0,0,1,1.844-1.844Z" fill="#cf6a46"/>
      <path id="Trazado_9011" data-name="Trazado 9011" d="M684.041,740.657h-3.687a1.845,1.845,0,0,1-1.844-1.844V711.158h7.375v27.655a1.844,1.844,0,0,1-1.844,1.844Z" fill="#00a6da"/>
      <path id="Trazado_9012" data-name="Trazado 9012" d="M684.041,718.533h1.844v-7.375H678.51v27.655a1.845,1.845,0,0,0,1.844,1.844H682.2v-20.28a1.843,1.843,0,0,1,1.843-1.844Z" fill="#0096d3"/>
      <path id="Trazado_9013" data-name="Trazado 9013" d="M620.765,740.657h-3.687a1.845,1.845,0,0,1-1.844-1.844V711.158h7.375v27.655a1.844,1.844,0,0,1-1.844,1.844Z" fill="#dd714b"/>
      <path id="Trazado_9014" data-name="Trazado 9014" d="M620.765,718.533h1.844v-7.375h-7.375v27.655a1.845,1.845,0,0,0,1.844,1.844h1.844v-20.28a1.843,1.843,0,0,1,1.843-1.844Z" fill="#cf6a46"/>
      <path id="Trazado_9015" data-name="Trazado 9015" d="M639.2,740.657h-3.687a1.844,1.844,0,0,1-1.843-1.844V711.158h7.374v27.655a1.844,1.844,0,0,1-1.844,1.844Z" fill="#00a6da"/>
      <path id="Trazado_9016" data-name="Trazado 9016" d="M639.2,718.533h1.844v-7.375h-7.374v27.655a1.844,1.844,0,0,0,1.843,1.844h1.844v-20.28a1.843,1.843,0,0,1,1.843-1.844Z" fill="#0096d3"/>
      <path id="Trazado_9017" data-name="Trazado 9017" d="M665.6,585.344h-3.687a1.844,1.844,0,0,0-1.844,1.843v27.655h7.375V587.187a1.844,1.844,0,0,0-1.844-1.843Z" fill="#dd714b"/>
      <path id="Trazado_9018" data-name="Trazado 9018" d="M665.6,607.467h1.844v7.375h-7.375V587.187a1.844,1.844,0,0,1,1.844-1.843h1.843v20.28a1.844,1.844,0,0,0,1.844,1.843Z" fill="#cf6a46"/>
      <path id="Trazado_9019" data-name="Trazado 9019" d="M684.041,585.344h-3.687a1.844,1.844,0,0,0-1.844,1.843v27.655h7.375V587.187a1.843,1.843,0,0,0-1.844-1.843Z" fill="#00a6da"/>
      <path id="Trazado_9020" data-name="Trazado 9020" d="M684.041,607.467h1.844v7.375H678.51V587.187a1.844,1.844,0,0,1,1.844-1.843H682.2v20.28a1.843,1.843,0,0,0,1.843,1.843Z" fill="#0096d3"/>
      <path id="Trazado_9021" data-name="Trazado 9021" d="M620.765,585.344h-3.687a1.844,1.844,0,0,0-1.844,1.843v27.655h7.375V587.187a1.843,1.843,0,0,0-1.844-1.843Z" fill="#dd714b"/>
      <path id="Trazado_9022" data-name="Trazado 9022" d="M620.765,607.467h1.844v7.375h-7.375V587.187a1.844,1.844,0,0,1,1.844-1.843h1.844v20.28a1.843,1.843,0,0,0,1.843,1.843Z" fill="#cf6a46"/>
      <path id="Trazado_9023" data-name="Trazado 9023" d="M639.2,585.344h-3.687a1.843,1.843,0,0,0-1.843,1.843v27.655h7.374V587.187a1.843,1.843,0,0,0-1.844-1.843Z" fill="#00a6da"/>
      <path id="Trazado_9024" data-name="Trazado 9024" d="M639.2,607.467h1.844v7.375h-7.374V587.187a1.843,1.843,0,0,1,1.843-1.843h1.844v20.28a1.843,1.843,0,0,0,1.843,1.843Z" fill="#0096d3"/>
      <g id="Grupo_9186" data-name="Grupo 9186">
        <path id="Trazado_9025" data-name="Trazado 9025" d="M692.8,717.99h-84.49a1.76,1.76,0,0,1-1.76-1.76V610.618a1.76,1.76,0,0,1,1.76-1.76H692.8a1.76,1.76,0,0,1,1.76,1.76V716.23a1.76,1.76,0,0,1-1.76,1.76Z" fill="#dcd7d9"/>
        <path id="Trazado_9026" data-name="Trazado 9026" d="M694.563,695.107H652.318v-86.25H648.8v86.25H606.553v7.041H648.8V717.99h3.52V702.148h42.245v-7.041Z" fill="#ccc6c9"/>
        <path id="Trazado_9027" data-name="Trazado 9027" d="M696.323,696.868h-91.53a3.521,3.521,0,0,1-3.52-3.521V633.5a3.52,3.52,0,0,1,3.52-3.521h91.53a3.521,3.521,0,0,1,3.521,3.521v59.846a3.52,3.52,0,0,1-3.521,3.521Z" fill="#ede8ea"/>
        <path id="Trazado_9028" data-name="Trazado 9028" d="M601.273,670.464h98.571v7.04H601.273v-7.04Z" fill="#dcd7d9"/>
        <path id="Trazado_9029" data-name="Trazado 9029" d="M601.273,659.9h98.571v3.52H601.273V659.9Z" fill="#fff"/>
        <path id="Trazado_9030" data-name="Trazado 9030" d="M601.273,649.343h98.571v3.52H601.273v-3.52Z" fill="#dcd7d9"/>
        <path id="Trazado_9031" data-name="Trazado 9031" d="M618.875,659.9h-5.281a3.52,3.52,0,0,0-3.52,3.52v10.561H622.4V663.424a3.52,3.52,0,0,0-3.52-3.52Z" fill="#ea4e65"/>
        <path id="Trazado_9032" data-name="Trazado 9032" d="M622.4,681.026H610.074a1.76,1.76,0,0,1-1.76-1.76v-3.521a1.76,1.76,0,0,1,1.76-1.76H622.4a1.76,1.76,0,0,1,1.76,1.76v3.521a1.76,1.76,0,0,1-1.76,1.76Z" fill="#614c5d"/>
        <path id="Trazado_9033" data-name="Trazado 9033" d="M620.635,644.5h-8.8a2.2,2.2,0,0,1,0-4.4h8.8a2.2,2.2,0,0,1,0,4.4Z" fill="#ea4e65"/>
        <path id="Trazado_9034" data-name="Trazado 9034" d="M643.517,644.5h-8.8a2.2,2.2,0,1,1,0-4.4h8.8a2.2,2.2,0,1,1,0,4.4Z" fill="#ea4e65"/>
        <path id="Trazado_9035" data-name="Trazado 9035" d="M666.4,644.5h-8.8a2.2,2.2,0,0,1,0-4.4h8.8a2.2,2.2,0,0,1,0,4.4Z" fill="#ea4e65"/>
        <path id="Trazado_9036" data-name="Trazado 9036" d="M689.282,644.5h-8.8a2.2,2.2,0,1,1,0-4.4h8.8a2.2,2.2,0,1,1,0,4.4Z" fill="#ea4e65"/>
        <path id="Trazado_9037" data-name="Trazado 9037" d="M613.594,677.506a1.761,1.761,0,0,1-1.76-1.761v-1.76h-1.76a1.76,1.76,0,0,0-1.76,1.76v3.521a1.76,1.76,0,0,0,1.76,1.76H622.4a1.76,1.76,0,0,0,1.76-1.76v-1.76Z" fill="#52394d"/>
        <path id="Trazado_9038" data-name="Trazado 9038" d="M610.073,670.464h12.321v3.52H610.073v-3.52Z" fill="#e7344e"/>
        <path id="Trazado_9039" data-name="Trazado 9039" d="M641.757,659.9h-5.28a3.521,3.521,0,0,0-3.521,3.52v10.561h12.322V663.424a3.521,3.521,0,0,0-3.521-3.52Z" fill="#ea4e65"/>
        <path id="Trazado_9040" data-name="Trazado 9040" d="M645.278,681.026H632.956a1.76,1.76,0,0,1-1.76-1.76v-3.521a1.76,1.76,0,0,1,1.76-1.76h12.322a1.76,1.76,0,0,1,1.76,1.76v3.521a1.76,1.76,0,0,1-1.76,1.76Z" fill="#614c5d"/>
        <path id="Trazado_9041" data-name="Trazado 9041" d="M636.477,677.506a1.761,1.761,0,0,1-1.761-1.761v-1.76h-1.76a1.76,1.76,0,0,0-1.76,1.76v3.521a1.76,1.76,0,0,0,1.76,1.76h12.321a1.76,1.76,0,0,0,1.761-1.76v-1.76Z" fill="#52394d"/>
        <path id="Trazado_9042" data-name="Trazado 9042" d="M632.956,670.464h12.321v3.52H632.956v-3.52Z" fill="#e7344e"/>
        <path id="Trazado_9043" data-name="Trazado 9043" d="M664.64,659.9h-5.281a3.52,3.52,0,0,0-3.52,3.52v10.561H668.16V663.424a3.52,3.52,0,0,0-3.52-3.52Z" fill="#ea4e65"/>
        <path id="Trazado_9044" data-name="Trazado 9044" d="M668.16,681.026H655.839a1.76,1.76,0,0,1-1.76-1.76v-3.521a1.76,1.76,0,0,1,1.76-1.76H668.16a1.76,1.76,0,0,1,1.76,1.76v3.521a1.76,1.76,0,0,1-1.76,1.76Z" fill="#614c5d"/>
        <path id="Trazado_9045" data-name="Trazado 9045" d="M659.359,677.506a1.761,1.761,0,0,1-1.76-1.761v-1.76h-1.76a1.76,1.76,0,0,0-1.76,1.76v3.521a1.76,1.76,0,0,0,1.76,1.76H668.16a1.76,1.76,0,0,0,1.76-1.76v-1.76Z" fill="#52394d"/>
        <path id="Trazado_9046" data-name="Trazado 9046" d="M655.838,670.464h12.321v3.52H655.838v-3.52Z" fill="#e7344e"/>
        <path id="Trazado_9047" data-name="Trazado 9047" d="M687.522,659.9h-5.28a3.521,3.521,0,0,0-3.521,3.52v10.561h12.322V663.424a3.52,3.52,0,0,0-3.521-3.52Z" fill="#ea4e65"/>
        <path id="Trazado_9048" data-name="Trazado 9048" d="M691.043,681.026H678.721a1.76,1.76,0,0,1-1.76-1.76v-3.521a1.76,1.76,0,0,1,1.76-1.76h12.322a1.76,1.76,0,0,1,1.76,1.76v3.521a1.76,1.76,0,0,1-1.76,1.76Z" fill="#614c5d"/>
        <path id="Trazado_9049" data-name="Trazado 9049" d="M682.242,677.506a1.761,1.761,0,0,1-1.76-1.761v-1.76h-1.761a1.76,1.76,0,0,0-1.76,1.76v3.521a1.76,1.76,0,0,0,1.76,1.76h12.322a1.76,1.76,0,0,0,1.76-1.76v-1.76Z" fill="#52394d"/>
        <path id="Trazado_9050" data-name="Trazado 9050" d="M678.722,670.464h12.321v3.52H678.722v-3.52Z" fill="#e7344e"/>
        <path id="Trazado_9051" data-name="Trazado 9051" d="M638.236,615.9a3.52,3.52,0,1,1-3.52,3.52,3.52,3.52,0,0,1,3.52-3.52Z" fill="#b2aab1"/>
        <path id="Trazado_9052" data-name="Trazado 9052" d="M618.876,615.9a3.52,3.52,0,1,1-3.521,3.52,3.52,3.52,0,0,1,3.521-3.52Z" fill="#b2aab1"/>
        <path id="Trazado_9053" data-name="Trazado 9053" d="M682.241,615.9a3.52,3.52,0,1,1-3.521,3.52,3.52,3.52,0,0,1,3.521-3.52Z" fill="#b2aab1"/>
        <path id="Trazado_9054" data-name="Trazado 9054" d="M662.88,615.9a3.52,3.52,0,1,1-3.52,3.52,3.52,3.52,0,0,1,3.52-3.52Z" fill="#b2aab1"/>
        <path id="Trazado_9055" data-name="Trazado 9055" d="M638.236,703.908a3.52,3.52,0,1,1-3.52,3.52,3.52,3.52,0,0,1,3.52-3.52Z" fill="#b2aab1"/>
        <path id="Trazado_9056" data-name="Trazado 9056" d="M618.876,703.908a3.52,3.52,0,1,1-3.521,3.52,3.52,3.52,0,0,1,3.521-3.52Z" fill="#b2aab1"/>
        <path id="Trazado_9057" data-name="Trazado 9057" d="M682.241,703.908a3.52,3.52,0,1,1-3.521,3.52,3.52,3.52,0,0,1,3.521-3.52Z" fill="#b2aab1"/>
        <path id="Trazado_9058" data-name="Trazado 9058" d="M662.88,703.908a3.52,3.52,0,1,1-3.52,3.52,3.52,3.52,0,0,1,3.52-3.52Z" fill="#b2aab1"/>
      </g>
    </g>
  </g>
</svg>
