<svg xmlns="http://www.w3.org/2000/svg" xmlns:xlink="http://www.w3.org/1999/xlink" width="199.2" height="199.588" viewBox="0 0 199.2 199.588">
  <defs>
    <linearGradient id="linear-gradient" x1="0.5" y1="1" x2="0.5" gradientUnits="objectBoundingBox">
      <stop offset="0" stop-color="#ed6953"/>
      <stop offset="0.995" stop-color="#ffd454"/>
    </linearGradient>
    <linearGradient id="linear-gradient-2" x1="0.5" y1="1" x2="0.5" gradientUnits="objectBoundingBox">
      <stop offset="0" stop-color="#fff"/>
      <stop offset="0.995" stop-color="#ffd454"/>
    </linearGradient>
  </defs>
  <g id="Grupo_9174" data-name="Grupo 9174" transform="translate(-844.814 -150.978)">
    <circle id="Elipse_152" data-name="Elipse 152" cx="99.6" cy="99.6" r="99.6" transform="translate(844.814 151.171)" fill="#8ccbf9"/>
    <g id="Grupo_9173" data-name="Grupo 9173">
      <path id="Trazado_8961" data-name="Trazado 8961" d="M1043.487,341.49a14.494,14.494,0,0,0-4.231-5.732,34.668,34.668,0,0,0-1.093-31.438,14.95,14.95,0,0,1-1.794-7.347,68.183,68.183,0,0,0-.991-12.741,3.847,3.847,0,0,0-5.917-2.518l-6.134,4.082a3.152,3.152,0,0,1-4.4-.827,3.074,3.074,0,0,1,.752-4.132l22.886-17.012a3.211,3.211,0,0,0,.918-4.191,3.12,3.12,0,0,0-4.531-.894l-10.45,7.766c-4.557-6.5-11.69-11.656-22.8-12.859,0,0,2.143-19.514-12.85-30.462l-1.177-31.023a3.436,3.436,0,0,0-6.717-.885L976.1,221.44a1.888,1.888,0,0,1-3.714-.552l.228-11.362a3.845,3.845,0,0,0-2.67-3.74,76.981,76.981,0,0,0-8.866-2.274V189.341a3.208,3.208,0,0,0-2.814-3.238,3.121,3.121,0,0,0-3.424,3.1V215.03a2.765,2.765,0,0,1-2.763,2.766,4.019,4.019,0,0,1-3.873-3.411l-1.131-8.915a3.85,3.85,0,0,0-3.957-3.364,83.555,83.555,0,0,0-35.11,9.276,3.851,3.851,0,0,0-2.023,4.208l3.9,18.919a3.469,3.469,0,0,1-1.464,3.639,3.385,3.385,0,0,1-4.917-1.464l-7.989-17.776-13.237-29.48a4.02,4.02,0,0,0-7.434,2.556c.641,5.09,2.676,23.066,3.742,32.549a13.764,13.764,0,0,1-2.927,10.1,62.46,62.46,0,0,0-10.137,18.48l-11.2-9.845a3.118,3.118,0,0,0-4.592.523,3.208,3.208,0,0,0,.574,4.254l22.133,19.463a3,3,0,0,1-3.708,4.712l-.48-.338a3.847,3.847,0,0,0-6.057,3.249,71.291,71.291,0,0,0,.95,9.936l-7.8-4.694a3.835,3.835,0,0,0-5.454,4.914l4.811,10.279a6.952,6.952,0,0,1-.184,6.231c-3.3,6.17-9.515,21.171-1.839,35.865a32.943,32.943,0,0,0-5.891,3.747,5.15,5.15,0,0,0,3.236,9.156h46.759c33.118-21.6,64-18.018,92.723,0h47.813a6.63,6.63,0,0,0,6.17-9.076Z" fill="url(#linear-gradient)"/>
      <path id="Trazado_8962" data-name="Trazado 8962" d="M1003.086,311.334a32.227,32.227,0,0,1-.753,7.559,3.321,3.321,0,0,1-3.253,2.6h-.152a2.782,2.782,0,0,1-2.2-2.454c-.3-3.162-.736-9.906-2.812-13.5-2.823-4.89-7.545-6.952-9.2-9.6a2.722,2.722,0,0,1,3.351-3.9,28.115,28.115,0,0,1,8.915,5.384,1.488,1.488,0,0,0,2.505-1.034c.128-4.854-1.512-10.82-8.509-15.4l4.757-12.647a3.943,3.943,0,0,0-6.344-4.3l-8.169,7.445s-8.024-15.909-24.844-20.237a2.817,2.817,0,0,0-3.486,2.645l-.7,19.652a3.385,3.385,0,0,1-2.877,3.279,3.292,3.292,0,0,1-3.7-2.985l-3.409-39.959a3.121,3.121,0,0,0-3.689-2.8,3.216,3.216,0,0,0-2.51,3.47l1.451,17.022c-1.464.385-2.97.851-4.516,1.419-17.113,6.284-20.932,18.861-20.662,29.478a2.379,2.379,0,0,0,3.511,2.021,34.579,34.579,0,0,1,12.162-3.8,3.334,3.334,0,0,1,2.833,5.618c-2.742,2.674-8.96,3.764-13.742,8.763-3.472,3.633-5.927,11.393-7.217,15.123a3.516,3.516,0,0,1-3,2.409,3.412,3.412,0,0,1-3.684-3.429,40.386,40.386,0,0,1,1.1-9.047,2.383,2.383,0,0,0-3.058-2.833c-7.578,2.51-16.1,8.384-18.844,21.964-5.136,25.43,13.612,31.3,13.612,31.3h92.725s24.694-2.937,24.4-22.714c0,0-.005-10.378-7.439-17.628a1.5,1.5,0,0,0-2.558,1.118Z" fill="url(#linear-gradient-2)"/>
      <path id="Trazado_8963" data-name="Trazado 8963" d="M870.014,164.8a7.223,7.223,0,1,1-7.223-7.222,7.225,7.225,0,0,1,7.223,7.222Z" fill="#ffd454"/>
      <path id="Trazado_8964" data-name="Trazado 8964" d="M1034.669,219.89a5.819,5.819,0,0,0-9.628-3.137,10.879,10.879,0,0,0-3.356,8.135c-.1,5.232,2.719,6.279,5.577,6.018a8.577,8.577,0,0,0,7.668-9.326,15.531,15.531,0,0,0-.261-1.69Z" fill="#ffd454"/>
      <path id="Trazado_8965" data-name="Trazado 8965" d="M995.115,153.857a5.526,5.526,0,0,0-9.221-.736c-1.674,2.18-2.891,5.537-2.2,10.641,1.685,12.4,8.171,7.892,8.171,7.892s8.635-8,3.246-17.8Z" fill="#ffd454"/>
      <path id="Trazado_8966" data-name="Trazado 8966" d="M981.069,234.369a8.929,8.929,0,0,0-5.353-2.071,7.507,7.507,0,0,0-6.72,3.669c-2.19,3.282-.685,5.928,1.155,7.662a11.767,11.767,0,0,0,7.074,3.127c2.41.2,5.407-.261,7.155-3.174,2.293-3.824-1.1-7.416-3.311-9.213Z" fill="#fef8a6"/>
      <path id="Trazado_8967" data-name="Trazado 8967" d="M894.934,269.667a7.813,7.813,0,0,1-3.882-8.591c.586-2.763,2.148-6.2,6.23-7.588,3.808-1.3,6.875.757,8.939,3.024a7.891,7.891,0,0,1-.157,10.9,10.892,10.892,0,0,1-4.921,2.748,8.31,8.31,0,0,1-6.209-.492Z" fill="#fef8a6"/>
      <path id="Trazado_8968" data-name="Trazado 8968" d="M942.219,218.344a4.075,4.075,0,1,1-4.075-4.075,4.075,4.075,0,0,1,4.075,4.075Z" fill="#fef8a6"/>
      <path id="Trazado_8969" data-name="Trazado 8969" d="M865.174,312.764a5.973,5.973,0,0,1,6.54,3.024,7.324,7.324,0,0,1,.19,7.5c-1.551,2.65-4.348,3-6.674,2.72a6.027,6.027,0,0,1-5.356-6.378,8.318,8.318,0,0,1,1.469-4.049,6.36,6.36,0,0,1,3.831-2.816Z" fill="#fef8a6"/>
    </g>
  </g>
</svg>
