<?xml version="1.0" encoding="utf-8"?>
<!-- Generator: Adobe Illustrator 25.0.1, SVG Export Plug-In . SVG Version: 6.00 Build 0)  -->
<svg version="1.1" id="Capa_1" xmlns="http://www.w3.org/2000/svg" xmlns:xlink="http://www.w3.org/1999/xlink" x="0px" y="0px"
	 viewBox="0 0 274 248.3" style="enable-background:new 0 0 274 248.3;" xml:space="preserve">
<style type="text/css">
	.st0{clip-path:url(#SVGID_2_);}
	.st1{fill:#F5F1EF;}
	.st2{fill:#DA4A54;}
	.st3{fill:#F1D0A5;}
	.st4{fill:#F1B986;}
</style>
<g id="Grupo_9201" transform="translate(-126.891 -847.171)">
	<g id="Grupo_9200" transform="translate(126.891 847.171)">
		<g>
			<defs>
				<rect id="SVGID_1_" y="0" width="274" height="248.3"/>
			</defs>
			<clipPath id="SVGID_2_">
				<use xlink:href="#SVGID_1_"  style="overflow:visible;"/>
			</clipPath>
			<g id="Grupo_9199" class="st0">
				<path id="Trazado_9122" class="st1" d="M186.8,0.5H87.2c-13.4,0-25.7,7.1-32.4,18.7L5,105.4c-6.7,11.6-6.7,25.8,0,37.4
					l49.8,86.2c6.7,11.6,19,18.7,32.4,18.7h99.6c13.4,0,25.7-7.1,32.4-18.7l49.8-86.2c6.7-11.6,6.7-25.8,0-37.4l-49.8-86.2
					C212.5,7.6,200.2,0.5,186.8,0.5z"/>
			</g>
		</g>
	</g>
	<path id="Trazado_9123" class="st2" d="M214.1,1072.9c-5.5,0-10.6-2.9-13.3-7.7L151,979c-2.7-4.8-2.7-10.6,0-15.4l49.8-86.2
		c2.8-4.7,7.8-7.7,13.3-7.7h99.6c5.5,0,10.6,2.9,13.3,7.7l49.8,86.2c2.7,4.8,2.7,10.6,0,15.4l-49.8,86.2c-2.8,4.7-7.8,7.7-13.3,7.7
		H214.1z"/>
	<path id="Trazado_9124" class="st3" d="M323.3,978.7c-3.1,5.5-3.1,17.9-3.1,18.1c0,0-0.2,48-34.9,48h-31.2c-25.6,0-40-26.2-40-48.7
		v-50c0-5.8,4.7-10.5,10.5-10.5S235,940.2,235,946v-21.2c0-5.8,4.7-10.5,10.5-10.5s10.5,4.7,10.5,10.5v-16.3
		c0-5.8,4.7-10.5,10.5-10.5c5.8,0,10.5,4.7,10.5,10.5v13.2c0-5.8,4.7-10.5,10.5-10.5c5.8,0,10.5,4.7,10.5,10.5v56.2
		c0.2-0.8,0.5-1.5,0.7-2.3c1-2.9,2.3-5.8,3.8-8.5c3.2-5.8,10.5-7.9,16.2-4.7c0,0,0,0,0,0C324.4,965.6,326.5,972.9,323.3,978.7
		C323.3,978.7,323.3,978.7,323.3,978.7L323.3,978.7z"/>
	<path id="Trazado_9125" class="st4" d="M238.9,979.2c-2.2,0-3.9-1.8-3.9-3.9l0,0v-50.6c0-5.8,4.7-10.5,10.5-10.5
		c1.3,0,2.7,0.3,3.9,0.8c-4,1.6-6.6,5.4-6.6,9.7v50.6C242.8,977.5,241.1,979.2,238.9,979.2C238.9,979.2,238.9,979.2,238.9,979.2
		L238.9,979.2z"/>
	<path id="Trazado_9126" class="st4" d="M259.9,978.5c-2.2,0-3.9-1.8-3.9-3.9l0,0v-66.2c0-5.8,4.7-10.5,10.5-10.5
		c1.3,0,2.7,0.3,3.9,0.8c-4,1.6-6.6,5.4-6.6,9.7v66.2C263.8,976.7,262,978.5,259.9,978.5L259.9,978.5z"/>
	<path id="Trazado_9127" class="st4" d="M280.8,973.9c-2.2,0-3.9-1.8-3.9-3.9c0,0,0,0,0,0v-48.4c0-5.8,4.7-10.5,10.5-10.5
		c1.3,0,2.7,0.3,3.9,0.8c-4,1.6-6.6,5.4-6.6,9.7v48.4C284.7,972.1,283,973.9,280.8,973.9L280.8,973.9L280.8,973.9z"/>
	<path id="Trazado_9128" class="st4" d="M238.9,979.2c-2.2,0-3.9-1.8-3.9-3.9l0,0v-50.6c0-5.8,4.7-10.5,10.5-10.5
		c1.3,0,2.7,0.3,3.9,0.8c-4,1.6-6.6,5.4-6.6,9.7v50.6C242.8,977.5,241.1,979.2,238.9,979.2C238.9,979.2,238.9,979.2,238.9,979.2
		L238.9,979.2z"/>
	<path id="Trazado_9129" class="st4" d="M261.9,1044.7h-7.8c-25.6,0-40-26.2-40-48.7v-50c0-5.8,4.7-10.5,10.5-10.5
		c1.4,0,2.7,0.3,3.9,0.8c-4,1.6-6.6,5.4-6.6,9.7v50C221.9,1018.5,236.3,1044.7,261.9,1044.7L261.9,1044.7z"/>
	<path id="Trazado_9130" class="st4" d="M302.3,967c-1.5,2.7-2.8,5.5-3.8,8.5c-0.2,0.9-0.5,1.6-0.7,2.3c-1.7,4.7-2.4,9.8-2,14.8
		c-13.8,0-25.5,10.2-27.4,23.9c-0.2,2,1.2,3.8,3.2,4c1.7,0.2,3.2-0.8,3.8-2.3c8.6-22.6,30.1-19.1,30.1-19.1
		c-5.5-16.2,7.2-39.4,12.9-36.7C312.8,959.2,305.5,961.3,302.3,967L302.3,967z"/>
</g>
</svg>
