<svg xmlns="http://www.w3.org/2000/svg" width="182.343" height="182.343" viewBox="0 0 182.343 182.343">
  <g id="Grupo_9185" data-name="Grupo 9185" transform="translate(-979.214 -571.829)">
    <circle id="Elipse_156" data-name="Elipse 156" cx="91.171" cy="91.171" r="91.171" transform="translate(979.214 571.829)" fill="#5ad4d2"/>
    <g id="Grupo_9184" data-name="Grupo 9184">
      <path id="Trazado_8991" data-name="Trazado 8991" d="M1121.813,743H1018.956a11.429,11.429,0,0,1-11.428-11.428V594.429A11.429,11.429,0,0,1,1018.956,583h102.857a11.429,11.429,0,0,1,11.429,11.429V731.572A11.429,11.429,0,0,1,1121.813,743Zm0,0" fill="#fab400"/>
      <rect id="Rectángulo_6091" data-name="Rectángulo 6091" width="55.02" height="34.286" rx="5.789" transform="translate(1072.508 703)" fill="#00a0c8"/>
      <path id="Trazado_8992" data-name="Trazado 8992" d="M1121.813,583H1018.956a11.429,11.429,0,0,0-11.428,11.429v95.143h125.714V594.429A11.429,11.429,0,0,0,1121.813,583Zm0,0" fill="#614c5d"/>
      <g id="Grupo_9181" data-name="Grupo 9181">
        <path id="Trazado_8993" data-name="Trazado 8993" d="M1101.575,677.6h-62.38a10.394,10.394,0,0,1-10.4-10.4v-62.38a10.394,10.394,0,0,1,10.4-10.4h62.38a10.394,10.394,0,0,1,10.4,10.4v62.38a10.394,10.394,0,0,1-10.4,10.4Zm0,0" fill="#00a0c8"/>
        <path id="Trazado_8994" data-name="Trazado 8994" d="M1101.575,594.429h-62.38a10.394,10.394,0,0,0-10.4,10.4v5.2a10.394,10.394,0,0,1,10.4-10.4h62.38a10.394,10.394,0,0,1,10.4,10.4v-5.2a10.394,10.394,0,0,0-10.4-10.4Zm0,0" fill="#0082aa"/>
        <path id="Trazado_8995" data-name="Trazado 8995" d="M1099.808,632.583a5.181,5.181,0,0,1-3.666-1.512,36.47,36.47,0,0,0-51.515,0,5.2,5.2,0,1,1-7.33-7.375,46.875,46.875,0,0,1,66.176,0,5.2,5.2,0,0,1-3.665,8.887Zm0,0" fill="#0a5078"/>
        <path id="Trazado_8996" data-name="Trazado 8996" d="M1035.462,642.736a5.189,5.189,0,0,0,0,7.351l17.013,17.013a20.57,20.57,0,0,0-2.942,10.5h41.587a20.8,20.8,0,0,0-20.794-20.793,20.578,20.578,0,0,0-10.5,2.941l-17.013-17.013a5.189,5.189,0,0,0-7.35,0Zm0,0" fill="#c80a50"/>
      </g>
      <path id="Trazado_8997" data-name="Trazado 8997" d="M1038.956,722.355a11.429,11.429,0,1,1-11.428-11.429,11.429,11.429,0,0,1,11.428,11.429Zm0,0" fill="#be7800"/>
      <path id="Trazado_8998" data-name="Trazado 8998" d="M1067.528,722.355a11.428,11.428,0,1,1-11.429-11.429,11.429,11.429,0,0,1,11.429,11.429Zm0,0" fill="#be7800"/>
      <path id="Trazado_8999" data-name="Trazado 8999" d="M1036.1,722.355a8.572,8.572,0,1,1-8.571-8.572,8.571,8.571,0,0,1,8.571,8.572Zm0,0" fill="#f0f0f0"/>
      <path id="Trazado_9000" data-name="Trazado 9000" d="M1064.671,722.355a8.572,8.572,0,1,1-8.572-8.572,8.572,8.572,0,0,1,8.572,8.572Zm0,0" fill="#f0f0f0"/>
      <g id="Grupo_9182" data-name="Grupo 9182">
        <path id="Trazado_9001" data-name="Trazado 9001" d="M1096.3,723a8.571,8.571,0,1,1-8.571-8.571A8.571,8.571,0,0,1,1096.3,723Zm0,0" fill="#0082aa"/>
        <path id="Trazado_9002" data-name="Trazado 9002" d="M1096.3,720.143a8.571,8.571,0,1,1-8.571-8.571,8.571,8.571,0,0,1,8.571,8.571Zm0,0" fill="#6addc7"/>
        <path id="Trazado_9003" data-name="Trazado 9003" d="M1090.589,720.143a2.857,2.857,0,1,1-2.857-2.857,2.858,2.858,0,0,1,2.857,2.857Zm0,0" fill="#00143c"/>
      </g>
      <g id="Grupo_9183" data-name="Grupo 9183">
        <path id="Trazado_9004" data-name="Trazado 9004" d="M1120.875,723a8.571,8.571,0,1,1-8.572-8.571,8.572,8.572,0,0,1,8.572,8.571Zm0,0" fill="#0082aa"/>
        <path id="Trazado_9005" data-name="Trazado 9005" d="M1120.875,720.143a8.571,8.571,0,1,1-8.572-8.571,8.571,8.571,0,0,1,8.572,8.571Zm0,0" fill="#c80a50"/>
        <path id="Trazado_9006" data-name="Trazado 9006" d="M1115.161,720.143a2.857,2.857,0,1,1-2.858-2.857,2.858,2.858,0,0,1,2.858,2.857Zm0,0" fill="#00143c"/>
      </g>
      <path id="Trazado_9007" data-name="Trazado 9007" d="M1027.528,719.5a2.858,2.858,0,0,0,2.857-2.857v-2.331a8.022,8.022,0,0,0-5.714,0v2.331a2.858,2.858,0,0,0,2.857,2.857Zm0,0" fill="#d2d2d2"/>
      <path id="Trazado_9008" data-name="Trazado 9008" d="M1056.1,719.5a2.858,2.858,0,0,0,2.857-2.857v-2.331a8.022,8.022,0,0,0-5.714,0v2.331a2.858,2.858,0,0,0,2.857,2.857Zm0,0" fill="#d2d2d2"/>
    </g>
  </g>
</svg>
